# xmcd
#
# Track frame offsets: 
#        187
#        79042
#        130830
#        196177
#        196745
#        198172
#        199540
#        200895
#        202750
#        204902
#        207047
#        211440
#        217220
#        219770
#        222152
#        226112
#        233960
#        239700
#        241907
#        245152
#        250292
#        257517
#        266415
#        280787
#        283177
#        285880
#        287757
#        295432
#        298997
#
# Disc length: 4058 seconds
#
# Revision: 0
# Processed by: cddbd v1.5.2PL0 Copyright (c) Steve Scherf et al.
# Submitted via: ExactAudioCopy v0.99pb5
#
DISCID=cf0fd81d
DTITLE=aa - bb
DYEAR=2007
DGENRE=Acid Punk
TTITLE0=01. 1st - [Piano Concerto No.3 #01] Piano Concerto No.3
TTITLE1=02. 2nd - [Piano Concerto No.3 #02] Piano Concerto No.3
TTITLE2=03. 3rd - [Piano Concerto No.3 #03] Piano Concerto No.3
TTITLE3=04. Introduction - [Piano Concerto No.3 #04] Rhapsody on a The
TTITLE3=me by Paganini, Op.43
TTITLE4=05. 1 - [Piano Concerto No.3 #05] Rhapsody on a Theme by Pagan
TTITLE4=ini, Op.43
TTITLE5=06. Theme - [Piano Concerto No.3 #06] Rhapsody on a Theme by P
TTITLE5=aganini, Op.43
TTITLE6=07. 2 - [Piano Concerto No.3 #07] Rhapsody on a Theme by Pagan
TTITLE6=ini, Op.43
TTITLE7=08. 3 - [Piano Concerto No.3 #08] Rhapsody on a Theme by Pagan
TTITLE7=ini, Op.43
TTITLE8=09. 4 - [Piano Concerto No.3 #09] Rhapsody on a Theme by Pagan
TTITLE8=ini, Op.43
TTITLE9=10. 5 - [Piano Concerto No.3 #10] Rhapsody on a Theme by Pagan
TTITLE9=ini, Op.43
TTITLE10=11. 6 - [Piano Concerto No.3 #11] Rhapsody on a Theme by Paga
TTITLE10=nini, Op.43
TTITLE11=12. 7 - [Piano Concerto No.3 #12] Rhapsody on a Theme by Paga
TTITLE11=nini, Op.43
TTITLE12=13. 8 - [Piano Concerto No.3 #13] Rhapsody on a Theme by Paga
TTITLE12=nini, Op.43
TTITLE13=14. 9 - [Piano Concerto No.3 #14] Rhapsody on a Theme by Paga
TTITLE13=nini, Op.43
TTITLE14=15. 10 - [Piano Concerto No.3 #15] Rhapsody on a Theme by Pag
TTITLE14=anini, Op.43
TTITLE15=16. 11 - [Piano Concerto No.3 #16] Rhapsody on a Theme by Pag
TTITLE15=anini, Op.43
TTITLE16=17. 12 - [Piano Concerto No.3 #17] Rhapsody on a Theme by Pag
TTITLE16=anini, Op.43
TTITLE17=18. 13 - [Piano Concerto No.3 #18] Rhapsody on a Theme by Pag
TTITLE17=anini, Op.43
TTITLE18=19. 14 - [Piano Concerto No.3 #19] Rhapsody on a Theme by Pag
TTITLE18=anini, Op.43
TTITLE19=20. 15 - [Piano Concerto No.3 #20] Rhapsody on a Theme by Pag
TTITLE19=anini, Op.43
TTITLE20=21. 16 - [Piano Concerto No.3 #21] Rhapsody on a Theme by Pag
TTITLE20=anini, Op.43
TTITLE21=22. 17 - [Piano Concerto No.3 #22] Rhapsody on a Theme by Pag
TTITLE21=anini, Op.43
TTITLE22=23. 18 - [Piano Concerto No.3 #23] Rhapsody on a Theme by Pag
TTITLE22=anini, Op.43
TTITLE23=24. 19 - [Piano Concerto No.3 #24] Rhapsody on a Theme by Pag
TTITLE23=anini, Op.43
TTITLE24=25. 20 - [Piano Concerto No.3 #25] Rhapsody on a Theme by Pag
TTITLE24=anini, Op.43
TTITLE25=26. 21 - [Piano Concerto No.3 #26] Rhapsody on a Theme by Pag
TTITLE25=anini, Op.43
TTITLE26=27. 22 - [Piano Concerto No.3 #27] Rhapsody on a Theme by Pag
TTITLE26=anini, Op.43
TTITLE27=28. 23 - [Piano Concerto No.3 #28] Rhapsody on a Theme by Pag
TTITLE27=anini, Op.43
TTITLE28=29. 24 - [Piano Concerto No.3 #29] Rhapsody on a Theme by Pag
TTITLE28=anini, Op.43
EXTD=
EXTT0=
EXTT1=
EXTT2=
EXTT3=
EXTT4=
EXTT5=
EXTT6=
EXTT7=
EXTT8=
EXTT9=
EXTT10=
EXTT11=
EXTT12=
EXTT13=
EXTT14=
EXTT15=
EXTT16=
EXTT17=
EXTT18=
EXTT19=
EXTT20=
EXTT21=
EXTT22=
EXTT23=
EXTT24=
EXTT25=
EXTT26=
EXTT27=
EXTT28=
PLAYORDER=
